<?xml version="1.0" encoding="utf-8"?>
<svg xmlns="http://www.w3.org/2000/svg" width="480" height="480" viewBox="0 0 512 512">
  <path fill="#D6E5E5" d="M370.5,143.3c-24.8-12.4-52.4-8.9-75.8,5.1c-18.5,11.1-40.1,29.7-42,52.5c1.3,3.9,1.8,7.8,0.4,11.1c-0.1,1.5-1,2.6-2.2,3.2c-4.1,4-10.5-1.2-8.1-5.7c-0.3-2.3-0.4-4.6-0.4-6.9c-0.7-1.5-1.5-2.8-1.9-3.5c-2.3-4.6-4.8-9.1-7.6-13.4c-5.6-8.7-12-16.9-19.7-23.9c-14.1-12.7-31.5-19.9-50.7-19.7c-32.6,0.4-69.2,15.9-76.9,50.7c-5.2,23.7,3.2,48.2,16.6,67.8c14.5,21.2,34.2,38,54.8,53c20.3,14.8,41.8,27.6,62.6,41.6c19.9,13.4,38.1,29,50.4,49.8c16.6-22.8,34.3-44.8,52.1-66.6c17.1-21,34.7-41.7,50.6-63.7c15.1-20.9,31.3-46.7,31.7-73.4C404.8,177.6,392.2,154.2,370.5,143.3z" />
  <path fill="#EF4823" d="M474.2,161.7c-16.1-46.6-46.7-87.1-91.3-109.6c-50.9-25.7-111-28.1-166.4-19.3C166.7,40.8,114.2,58.8,76.9,94c-19.6,18.5-34.7,40.9-42.7,66.8c-8,26-10.4,53.1-12.1,80.1c-0.1,1.1-0.4,2-1,2.7c0,0.2,0.1,0.5,0.1,0.8c0,52.9-1.1,108.3,30.1,153.9c25.3,37.1,64.5,61.5,107.2,73.7c88,25.2,194.2,9.6,264.9-50.8C497.5,357.9,504.3,248.9,474.2,161.7z M414.4,202.1c-1.5,26.6-14.4,51-29.3,72.6c-16.3,23.5-35,45.4-53,67.5c-18.9,23.2-37.8,46.5-55.3,70.7c0.6,2.7-0.8,5.8-4.3,5.8h-2c-2,0-3.5-0.9-4.4-2.1c-0.8-0.3-1.6-1-2.2-2.1c-21.8-40.6-66.2-60-102.4-85.4c-35.4-24.8-73-55.4-84.3-99.2c-5.6-21.6-3.5-44.8,9.6-63.3c13.8-19.6,36.8-29.6,60-33.1c25-3.8,51.5,1.4,70.7,18.7c10.4,9.4,19.4,20.2,26.5,32.4c0.4,0.8,0.9,1.6,1.5,2.4c8-22.4,30.7-40.6,50.6-50.7c28.6-14.6,63.5-15.4,89.7,4.9C404.2,155.4,415.7,178.7,414.4,202.1z" />
  <path d="M487.8,168.7c-14.2-46.9-40.9-88.3-82-115.7C359.5,22,300.5,14.5,246,18.5c-51.7,3.8-104.6,17.9-148.6,46c-21.6,13.8-40.9,31.9-55,53.4c-14.9,22.7-22.5,48.8-26.6,75.4c-2.3,15.1-3.4,30.3-4.4,45.6c-0.1,0.9,0.1,1.8,0.4,2.6c-0.9,0.9-1.5,2.2-1.5,3.8c0,30.1-0.6,60.4,4.6,90.2c4.8,27.1,15.2,52.9,31.6,75.1c29.2,39.5,73.5,63.3,120.4,75c88.9,22.2,194.2,3.7,264.5-57.1C505.5,364.4,514.7,257.6,487.8,168.7z M423.4,421.2c-70.8,60.4-176.9,76-264.9,50.8c-42.7-12.2-81.9-36.6-107.2-73.7c-31.1-45.6-30.1-101-30.1-153.9c0-0.3,0-0.5-0.1-0.8c0.5-0.7,0.9-1.6,1-2.7c1.7-27,4.1-54.1,12.1-80.1c7.9-25.9,23.1-48.3,42.7-66.8c37.3-35.2,89.8-53.2,139.6-61.1c55.5-8.8,115.5-6.4,166.4,19.3c44.6,22.5,75.1,63.1,91.3,109.6C504.3,248.9,497.5,357.9,423.4,421.2z" />
  <path d="M385.8,141.2c-26.2-20.3-61.1-19.4-89.7-4.9c-19.9,10.1-42.6,28.3-50.6,50.7c-0.5-0.9-1-1.7-1.5-2.4c-7.1-12.2-16.1-23-26.5-32.4c-19.2-17.3-45.7-22.5-70.7-18.7c-23.1,3.5-46.2,13.5-60,33.1c-13,18.5-15.2,41.7-9.6,63.3c11.3,43.8,48.9,74.4,84.3,99.2c36.2,25.4,80.6,44.8,102.4,85.4c0.6,1.1,1.3,1.7,2.2,2.1c0.9,1.3,2.4,2.1,4.4,2.1h2c3.6,0,4.9-3,4.3-5.8c17.6-24.3,36.4-47.5,55.3-70.7c18-22.1,36.7-44,53-67.5c14.9-21.5,27.8-45.9,29.3-72.6C415.7,178.7,404.2,155.4,385.8,141.2z M372.8,274.8c-15.9,21.9-33.5,42.7-50.6,63.7c-17.8,21.9-35.5,43.8-52.1,66.6c-12.2-20.8-30.4-36.4-50.4-49.8c-20.8-14-42.3-26.8-62.6-41.6c-20.6-15-40.3-31.9-54.8-53c-13.4-19.6-21.8-44.1-16.6-67.8c7.6-34.8,44.3-50.3,76.9-50.7c19.2-0.2,36.5,7,50.7,19.7c7.7,6.9,14.1,15.2,19.7,23.9c2.8,4.3,5.3,8.8,7.6,13.4c0.3,0.7,1.1,2,1.9,3.5c-0.1,2.3,0.1,4.6,0.4,6.9c-2.4,4.5,4.1,9.6,8.1,5.7c1.2-0.6,2-1.7,2.2-3.2c1.4-3.3,0.9-7.2-0.4-11.1c1.9-22.8,23.5-41.3,42-52.5c23.4-14.1,51-17.6,75.8-5.1c21.8,10.9,34.3,34.2,34,58.2C404.1,228.2,387.9,254,372.8,274.8z" />
</svg>